<svg xmlns="http://www.w3.org/2000/svg" fill="none" viewBox="0 0 92 95">
  <path d="M43.4 68.912c-7.6-4.081-17.477-5.26-25.477-6.21l-.55-.066A36.1 36.1 0 0043.4 68.912zm-.83 5.972c-.63-.952-1.648-1.746-3.38-2.214a.639.639 0 01-.47-.54.652.652 0 01.314-.645.637.637 0 01.487-.065c4.517 1.223 5.009 4.158 5.465 6.906.348 2.08.671 4.033 3.267 4.639a.64.64 0 01.497.636 4.431 4.431 0 00.872 2.703 4.365 4.365 0 002.325 1.603.636.636 0 01.426.389c.298.773.745 1.48 1.316 2.076a6.186 6.186 0 002.01 1.401.636.636 0 01.23.171 5.078 5.078 0 002.395 1.554 19.677 19.677 0 01-3.096-6.95.59.59 0 01-.013-.084c-.748-7.995-4.684-13.131-10.07-16.532a37.333 37.333 0 01-15.984-.478 37.504 37.504 0 01-14.344-7.13c-.934-.118-1.829-.239-2.681-.366a38.654 38.654 0 0013.779 9.907 38.34 38.34 0 0016.652 3.018l.003.001zm33.78-20.743a39.487 39.487 0 002.323-17.168.653.653 0 01.344-.63.637.637 0 01.865.276.653.653 0 01.07.243 40.762 40.762 0 01-2.357 17.607.647.647 0 01-.102.27 40.461 40.461 0 01-9.087 14.208 40.023 40.023 0 01-14.052 9.212c1.096 2.34 1.837 5.028 2.133 8.128a18.242 18.242 0 003.799 7.65.65.65 0 01-.168.975.636.636 0 01-.357.087 6.3 6.3 0 01-2.567-.548 6.353 6.353 0 01-2.129-1.548 7.511 7.511 0 01-3.761-3.848 5.65 5.65 0 01-2.647-1.903 5.73 5.73 0 01-1.17-3.058c-2.988-.904-3.364-3.16-3.764-5.557-.132-.8-.268-1.62-.537-2.39a39.652 39.652 0 01-18.222-3.293 40.001 40.001 0 01-14.797-11.225 30.777 30.777 0 01-2.427-.538c-.195-.053-.326-.06-.408-.035a.087.087 0 00-.05.033.225.225 0 00-.03.106c0 .032-.018.023-.012.033l.264.421.264.407a38.865 38.865 0 0015 13.365 38.458 38.458 0 0019.607 4.033c.17-.01.336.049.463.163a.649.649 0 01-.388 1.127 39.717 39.717 0 01-20.256-4.165A40.138 40.138 0 016.7 62.769c-.094-.14-.185-.285-.274-.42a41.747 41.747 0 01-.269-.429 1.406 1.406 0 01-.183-.787c.013-.268.095-.528.24-.753.179-.275.45-.475.765-.561.295-.087.658-.094 1.096.024 2.522.682 6.033 1.1 10.002 1.572 2.52.3 5.22.623 7.98 1.047-2.63-1.723-6.608-2.072-10.07-2.376-4.332-.379-7.936-.695-7.936-3.576a.65.65 0 01.508-.631c8.24-1.763 15.116-2.343 21.283-2.119 6.167.224 11.623 1.254 17.012 2.71 1.253.34 2.532.58 3.823.715 6.21.643 11.777-1.305 16.061-4.427 4.285-3.121 7.27-7.394 8.34-11.423.178-.658.302-1.328.373-2.006.197-1.938-.528-3.495-1.261-5.065-1.491-3.198-3.008-6.453 1.708-12.913a.64.64 0 01.73-.227.641.641 0 01.426.64c-.103 2.124 0 4.257.536 6.142.512 1.797 1.426 3.367 2.946 4.489 1.685.566 3.69.393 5.571-.04 1.963-.453 3.796-1.193 5.015-1.69a.634.634 0 01.844.392c.038.111.044.23.019.345-.473 2.167-1.738 3.96-3.327 5.311-1.866 1.587-4.192 2.569-6.195 2.826a.632.632 0 01-.648-.315.65.65 0 01.246-.888.638.638 0 01.241-.076c1.782-.23 3.859-1.11 5.533-2.533 1.07-.912 1.97-2.042 2.514-3.367-1.125.434-2.499.916-3.956 1.252-2.11.487-4.39.666-6.359-.029a.623.623 0 01-.196-.111c-1.814-1.31-2.89-3.135-3.481-5.21-.391-1.373-.569-2.854-.61-4.365-2.791 4.687-1.586 7.274-.398 9.818.808 1.734 1.608 3.453 1.376 5.744a14.257 14.257 0 01-.408 2.208c-1.14 4.297-4.309 8.842-8.83 12.137-4.523 3.295-10.387 5.342-16.94 4.664a25.516 25.516 0 01-4.027-.751c-5.312-1.435-10.672-2.45-16.726-2.67-5.908-.214-12.493.325-20.357 1.964.569 1.25 3.366 1.495 6.658 1.784 4.406.387 9.604.842 12.354 4.06 8.234 1.453 16.671 4.013 22.14 9.787 10.537-2.792 19.698-9.373 25.762-18.503l-.002.002zM53.767 77.003A38.745 38.745 0 0072.72 61.47c.404-.639.79-1.29 1.156-1.951A45.89 45.89 0 0151.542 73.72c.845 1.02 1.59 2.12 2.225 3.283zM2.95 51.773a.65.65 0 01-.42.823.633.633 0 01-.69-.219.648.648 0 01-.113-.229 40.747 40.747 0 011.43-27.466c3.644-8.705 10.197-15.846 18.52-20.18A39.727 39.727 0 0148.709.956C57.853 3 65.998 8.215 71.727 15.69a.65.65 0 01-.333 1.032.635.635 0 01-.68-.242A38.73 38.73 0 0048.432 2.217a38.458 38.458 0 00-26.168 3.431C14.207 9.845 7.863 16.76 4.334 25.185a39.444 39.444 0 00-1.383 26.589z" fill="#fff"/>
</svg>
